<svg width="50" height="50" viewBox="0 0 50 50" fill="none" xmlns="http://www.w3.org/2000/svg">
<path d="M49.9361 44.6542C49.2421 42.0257 47.7211 40.841 45.0379 40.841C44.2956 40.841 43.5534 40.841 42.7616 40.841C42.8294 40.6281 42.8738 40.4734 42.9286 40.3227C43.4817 38.8074 44.0439 37.2935 44.5904 35.7756C45.0535 34.4878 44.7705 33.8571 43.5038 33.4063C41.3424 32.6354 39.177 31.8805 37.009 31.1308C36.735 31.0356 36.5824 30.9034 36.5276 30.5992C36.2433 29.0245 35.9354 27.4551 35.6419 25.8817C35.5845 25.5749 35.4645 25.251 35.5141 24.9588C35.7371 23.6445 36.0098 22.3382 36.2667 21.02C36.7103 21.0252 36.9516 21.139 36.9281 21.6454C36.889 22.4532 36.9137 23.265 36.919 24.0742C36.9281 25.6873 38.033 26.8773 39.5226 26.8852C41.0502 26.8931 42.185 25.7085 42.1903 24.0901C42.1955 22.5537 42.1929 21.016 42.1903 19.4796C42.1903 18.0411 41.5406 17.1274 40.1931 16.6607C38.7635 16.1649 37.3325 15.673 35.9054 15.1719C35.7423 15.115 35.5454 15.0476 35.4502 14.9194C35.0601 14.3971 34.7027 13.8497 34.3179 13.2878C35.3145 12.5487 36.0202 11.6297 36.4324 10.5098C36.8681 9.32647 37.0898 8.08758 37.0625 6.82091C37.0103 4.36428 36.0006 2.50527 33.7387 1.44884C32.8569 1.03632 31.9242 0.953018 30.9733 0.986073C29.391 1.03896 27.8622 0.832698 26.4208 0.114747C25.9316 -0.128537 25.595 0.0182268 25.3407 0.524627C24.7876 1.6313 24.4654 3.09365 25.8794 4.64458C24.965 6.10428 24.5632 7.67902 24.9676 9.40448C25.3681 11.1101 26.3816 12.3768 27.8087 13.3618C27.36 14.0745 26.876 14.7263 26.5212 15.4443C26.1573 16.1781 25.6655 16.4491 24.8671 16.3632C24.5019 16.3235 24.2801 16.231 24.0845 15.9242C23.6331 15.2182 23.1531 14.5306 22.6783 13.8404C21.7573 12.5037 20.1633 12.1718 18.9202 13.0511C17.6835 13.9264 17.4435 15.5646 18.3632 16.9013C19.1563 18.0516 19.9976 19.1689 20.7438 20.3496C21.4195 21.4193 22.3026 21.9257 23.5562 21.8278C24.2293 21.7749 24.9102 21.8186 25.625 21.8186C25.625 22.7124 25.6433 23.5374 25.6133 24.3611C25.6055 24.5793 25.4985 24.8437 25.3485 24.9984C24.4706 25.9055 23.5823 26.8046 22.6665 27.6719C21.7391 28.5512 21.3099 29.6063 21.3282 30.8928C21.3543 32.7597 21.3269 34.628 21.3425 36.4949C21.3451 36.8281 21.2473 36.9762 20.9329 37.0978C19.4641 37.6664 18.448 38.6911 18.007 40.2526C17.9536 40.4403 17.917 40.6321 17.874 40.8211H14.8477C14.7094 37.7259 13.1662 35.8404 10.196 35.1978V21.7723C10.6578 22.0367 11.0609 22.276 11.4718 22.5008C12.8845 23.273 14.575 22.8076 15.3251 21.4444C16.0621 20.1063 15.5677 18.6175 14.1015 17.77C12.4201 16.7995 10.736 15.833 9.0533 14.8651C7.39926 13.9132 5.75696 12.9374 4.08596 12.0158C2.73846 11.2727 1.04788 11.8029 0.326523 13.137C-0.384402 14.4526 0.0930334 15.9401 1.4914 16.7519C2.37973 17.2676 3.26285 17.7964 4.16814 18.2817C4.5373 18.48 4.64947 18.718 4.64556 19.1358C4.62208 21.2513 4.63382 23.3668 4.63774 25.4824C4.63774 25.6952 4.60121 25.957 4.70427 26.1104C4.85428 26.3312 5.10342 26.5864 5.33562 26.6168C5.54302 26.6432 5.83652 26.4277 5.99827 26.2373C6.11306 26.1025 6.0948 25.8301 6.0948 25.6199C6.10132 23.7529 6.09872 21.8847 6.09872 20.0177V19.4122C6.89313 19.8683 7.58971 20.2888 8.30455 20.6709C8.60196 20.8296 8.705 21.0186 8.7037 21.3624C8.69196 25.8076 8.69588 30.2528 8.69457 34.6994C8.69457 34.858 8.67891 35.0167 8.67109 35.1807H6.09872V34.6227C6.09872 33.0691 6.09872 31.5155 6.09872 29.962C6.09872 29.7967 6.10264 29.6288 6.07524 29.4674C6.00872 29.0761 5.77521 28.846 5.37735 28.8421C4.9808 28.8368 4.73557 29.0523 4.66382 29.4476C4.63512 29.6089 4.63643 29.7768 4.63643 29.9408C4.63513 31.5102 4.63643 33.081 4.63382 34.6505C4.63382 34.8237 4.61556 34.9982 4.60382 35.2045C3.85507 35.2045 3.15718 35.2045 2.4606 35.2045C1.04527 35.2045 0.436107 35.818 0.434803 37.2486C0.433498 40.8013 0.434803 44.3554 0.434803 47.9081C0.434803 49.3665 1.04789 49.9866 2.48278 49.9866C15.7451 49.9866 29.0075 49.9866 42.2685 49.9866C43.3747 49.9866 44.4835 50.0236 45.5883 49.9747C47.5059 49.8901 48.8664 48.9235 49.6517 47.1478C49.8095 46.7908 49.8865 46.3968 50 46.02V44.7309C49.9791 44.7071 49.9465 44.6859 49.9387 44.6581L49.9361 44.6542ZM25.5846 20.2954C24.6389 20.2954 23.6892 20.3139 22.7422 20.2782C22.5765 20.2716 22.3783 20.068 22.2635 19.9067C21.3334 18.5951 20.4111 17.2781 19.5032 15.9507C19.0897 15.3464 19.2254 14.6417 19.785 14.2583C20.3211 13.8907 21.0034 14.0216 21.4117 14.6033C22.0143 15.4628 22.6078 16.3301 23.1792 17.212C23.4675 17.6589 23.8301 17.8718 24.3558 17.8414C24.7445 17.8189 25.1346 17.8374 25.5859 17.8374V20.298L25.5846 20.2954ZM41.3071 34.1692C42.005 34.4283 42.6272 34.661 43.3055 34.9136C43.2534 35.096 43.2156 35.2653 43.1569 35.4253C42.5542 37.0767 41.9528 38.7294 41.3319 40.3742C41.2641 40.554 41.0554 40.8264 40.9432 40.8119C40.7045 40.7801 40.3823 40.6453 40.2792 40.4522C39.8592 39.6616 39.6805 38.7704 39.9375 37.9163C40.3145 36.6628 40.8297 35.4517 41.3071 34.1692ZM36.2941 32.445C37.3416 32.7954 38.3865 33.155 39.4313 33.512C39.5827 33.5636 39.7314 33.6218 39.9231 33.6932C39.5657 34.6385 39.2174 35.5548 38.8574 36.5068C37.262 35.9515 35.7006 35.4081 34.1405 34.8646C33.5887 34.6729 33.0135 34.5275 32.4917 34.271C32.1669 34.111 31.8329 33.8347 31.6581 33.5226C31.212 32.7227 30.8533 31.8738 30.4645 31.0528C31.2055 30.5569 31.9555 30.1233 32.626 29.5891C33.2848 29.0642 33.8639 28.4361 34.511 27.824C34.7236 28.9187 34.9506 30.0122 35.1462 31.1109C35.2688 31.8011 35.6458 32.2295 36.2928 32.4464L36.2941 32.445ZM34.9636 16.4267C36.6098 16.9846 38.2521 17.5545 39.8905 18.1336C40.4632 18.3359 40.7188 18.7207 40.7254 19.3302C40.7332 20.1381 40.7267 20.9472 40.7267 21.7551C40.7267 22.5471 40.7332 23.3391 40.7241 24.1311C40.7162 24.8715 40.2414 25.3832 39.5696 25.3951C38.903 25.407 38.3982 24.9006 38.3878 24.1615C38.3721 23.1064 38.3852 22.0499 38.3826 20.9935C38.3813 20.2808 38.2273 20.0614 37.5699 19.8313C36.4507 19.4399 35.3249 19.0644 34.2122 18.6545C33.4817 18.3848 33.1935 17.6193 33.5404 16.9701C33.8092 16.4663 34.3818 16.2296 34.9636 16.428V16.4267ZM26.4312 1.81377C26.4755 1.80848 26.5303 1.786 26.5682 1.80187C28.0161 2.38628 29.528 2.49073 31.0672 2.4828C31.6594 2.48015 32.2869 2.51585 32.8399 2.70757C34.8645 3.41098 35.9184 5.38369 35.5141 7.69488C35.1475 7.34715 34.8266 7.07213 34.5383 6.76538C33.5809 5.74333 32.4421 5.15495 31.032 5.04653C29.7458 4.94737 28.5014 4.61682 27.3874 3.91341C26.4847 3.34354 26.2029 2.71021 26.4312 1.81377ZM26.2799 7.99106C26.3073 7.09857 26.5669 6.27617 27.1121 5.48682C28.4766 6.14395 29.8971 6.44541 31.3607 6.5935C32.2673 6.68605 32.9939 7.17526 33.5365 7.87999C34.0218 8.512 34.4236 9.21541 34.8188 9.91353C34.9062 10.0682 34.8801 10.3657 34.7914 10.535C33.8809 12.2551 32.0873 13.0789 30.1306 12.7047C27.96 12.2882 26.2146 10.1608 26.2812 7.99106H26.2799ZM27.0808 17.733C27.0821 17.4712 27.1656 17.1777 27.2999 16.9542C27.8909 15.9692 28.5157 15.0027 29.1484 13.9965C30.3628 14.3799 31.5772 14.3601 32.793 14.011C32.8817 13.9859 33.0434 14.0665 33.1087 14.1485C33.3109 14.4024 33.483 14.6814 33.6905 14.9841C32.4917 15.554 31.8134 16.4676 31.9516 17.807C32.1277 19.5232 33.4296 20.0759 34.8814 20.4448C34.627 21.7485 34.3818 23.0032 34.134 24.2765H27.1095C27.1017 24.1007 27.0873 23.9394 27.0873 23.778C27.0808 21.763 27.0678 19.7467 27.0808 17.7317V17.733ZM23.6475 28.7733C24.5828 27.8795 25.4841 26.9487 26.4142 26.0496C26.5512 25.9174 26.7716 25.8036 26.9543 25.8023C29.1497 25.7851 31.345 25.7918 33.5404 25.7931C33.6017 25.7931 33.6631 25.8063 33.8626 25.8301C33.5078 26.3801 33.2691 26.95 32.8621 27.3374C32.1342 28.0329 31.3503 28.6926 30.5063 29.2334C29.2723 30.0254 27.977 30.7235 26.6856 31.4164C25.8885 31.8434 25.5285 32.4345 25.5755 33.3653C25.6329 34.4984 25.5885 35.6355 25.5885 36.8043H22.7957C22.7957 36.6179 22.7957 36.4552 22.7957 36.2939C22.7957 34.4772 22.8087 32.6605 22.7892 30.8439C22.78 30.0148 23.0487 29.3432 23.6449 28.7733H23.6475ZM19.515 40.3491C19.9194 39.2147 21.1351 38.3354 22.3235 38.3275C23.3918 38.3195 24.4615 38.3262 25.5924 38.3262V40.8H19.4119C19.4459 40.6466 19.4654 40.4919 19.5163 40.3504L19.515 40.3491ZM2.27277 15.476C1.99362 15.3134 1.70272 15.0582 1.56967 14.7726C1.21225 14.011 1.89187 13.1648 2.82455 13.1198C3.07761 13.2203 3.34633 13.2904 3.57983 13.424C6.87357 15.3134 10.1634 17.2107 13.4519 19.1094C14.1367 19.5047 14.352 20.0693 14.065 20.6643C13.7663 21.2817 13.0123 21.5581 12.3562 21.2831C12.2218 21.2262 12.0953 21.1495 11.9674 21.0768C8.7337 19.2138 5.49606 17.3548 2.27146 15.4773L2.27277 15.476ZM13.341 48.3021C13.341 48.3484 13.3175 48.3947 13.2888 48.4965H8.92155C6.75746 48.4965 4.59469 48.4872 2.4306 48.5044C2.03144 48.507 1.88795 48.3894 1.88925 47.9729C1.90099 44.3884 1.90099 40.8026 1.88925 37.2182C1.88795 36.8122 2.00796 36.6761 2.41756 36.68C4.76035 36.6972 7.10184 36.684 9.44463 36.6906C11.6244 36.6972 13.2575 38.2045 13.3202 40.4245C13.3945 43.049 13.341 45.6775 13.3397 48.3034L13.341 48.3021ZM45.647 48.4899C45.4683 48.4991 45.2896 48.4951 45.1096 48.4951C35.2167 48.4951 25.3237 48.4951 15.4308 48.4951H14.8346V46.1483H15.4621C25.3224 46.1483 35.1827 46.1483 45.0431 46.1483C45.2701 46.1483 45.5049 46.1602 45.7227 46.1126C46.0775 46.0345 46.2888 45.7926 46.2901 45.4105C46.2901 45.031 46.0971 44.7798 45.7344 44.7004C45.5309 44.6555 45.3144 44.6634 45.1044 44.6634C35.2597 44.6621 25.4163 44.6621 15.5716 44.6621H14.8516V42.3298H15.4308C20.6381 42.3298 25.8442 42.3298 31.0515 42.3298C31.2146 42.3298 31.379 42.339 31.5394 42.3205C31.9947 42.2663 32.2817 41.9503 32.2634 41.5417C32.2451 41.1226 31.9555 40.8502 31.4755 40.8476C30.2063 40.8383 28.937 40.8436 27.6678 40.8436C27.493 40.8436 27.3195 40.8436 27.1069 40.8436C27.0952 40.6321 27.0795 40.4721 27.0782 40.3108C27.0691 37.9969 27.0678 35.6831 27.0456 33.3706C27.043 33.0453 27.1369 32.8549 27.4213 32.7055C27.9965 32.4027 28.5574 32.0682 29.1523 31.731C29.5462 32.5587 29.9415 33.3521 30.3054 34.1599C30.6589 34.9479 31.2407 35.4345 32.0429 35.7082C34.0283 36.3865 36.0045 37.0952 37.9899 37.7735C38.2991 37.8792 38.3917 38.0101 38.4073 38.3566C38.4452 39.1724 38.573 39.9829 38.6682 40.841C37.7434 40.841 36.7572 40.841 35.7698 40.841C35.4932 40.841 35.214 40.8264 34.9414 40.8568C34.5514 40.9018 34.3153 41.153 34.2944 41.5444C34.2735 41.9384 34.4927 42.2028 34.8723 42.2927C35.0432 42.3337 35.2271 42.3271 35.4058 42.3271C38.7582 42.3298 42.1094 42.3179 45.4618 42.3337C47.2111 42.3417 48.5429 43.7114 48.5299 45.4369C48.5168 47.054 47.2385 48.4092 45.6457 48.4885L45.647 48.4899Z" fill="#FE3F3F"/>
<path d="M7.50469 43.7326C7.01943 43.7194 6.53156 43.7167 6.04631 43.7326C5.59627 43.7472 5.28451 44.0618 5.28321 44.4625C5.2819 44.8684 5.58323 45.1764 6.03588 45.2082C6.27851 45.2254 6.52243 45.2108 6.76506 45.2108C6.76506 45.2069 6.76506 45.2016 6.76506 45.1976C7.0403 45.1976 7.31946 45.2293 7.58948 45.191C8.0056 45.1315 8.26388 44.789 8.21822 44.3924C8.16996 43.9706 7.9182 43.7445 7.50469 43.7326Z" fill="#FE3F3F"/>
<path d="M5.96947 41.6755C6.22775 41.6913 6.48733 41.6781 6.74692 41.6781C6.74692 41.6742 6.74692 41.6702 6.74692 41.6649C7.03781 41.6649 7.33393 41.6953 7.6196 41.657C7.98094 41.6094 8.19878 41.37 8.21965 40.9919C8.24052 40.6177 8.07224 40.2951 7.7096 40.2634C7.08608 40.2078 6.44951 40.2065 5.82599 40.266C5.4503 40.303 5.24681 40.6336 5.29116 41.0263C5.33421 41.4124 5.57292 41.6504 5.96817 41.6742L5.96947 41.6755Z" fill="#FE3F3F"/>
</svg>
