<svg width="60" height="60" viewBox="0 0 60 60" fill="none" xmlns="http://www.w3.org/2000/svg">
<path d="M16.7075 12.5001C13.295 12.6551 11.1875 13.1351 9.6975 14.6276C7.5 16.8276 7.5 20.3701 7.5 27.4526V39.9751C7.5 47.0576 7.5 50.6001 9.6975 52.8001C11.8925 55.0001 15.43 55.0001 22.5 55.0001H37.5C44.57 55.0001 48.1075 55.0001 50.3025 52.8001C52.4975 50.6001 52.5 47.0576 52.5 39.9751V27.4501C52.5 20.3676 52.5 16.8251 50.3025 14.6251C48.8125 13.1326 46.7025 12.6501 43.2925 12.4976" stroke="#FE3F3F" stroke-width="2" stroke-linecap="round" stroke-linejoin="round"/>
<path d="M25 45H35M28.75 25L31.25 17.5M17.5625 16.35C16.3625 11.65 15.7625 9.3 16.7375 7.575C16.9988 7.11551 17.3312 6.70036 17.7225 6.345C19.195 5 21.6725 5 26.625 5H33.375C38.3275 5 40.805 5 42.2775 6.345C42.67 6.7025 43.0025 7.12 43.2625 7.5775C44.2375 9.3025 43.6375 11.6525 42.4375 16.3525C41.4775 20.0975 41 21.97 39.72 23.2025C39.37 23.5408 38.9858 23.835 38.5675 24.085C37.0325 25 35.0575 25 31.11 25H28.89C24.94 25 22.965 25 21.4325 24.085C21.0176 23.8354 20.6319 23.5402 20.2825 23.205C19 21.97 18.52 20.0975 17.5625 16.35Z" stroke="#FE3F3F" stroke-width="2" stroke-linecap="round" stroke-linejoin="round"/>
</svg>
