<svg width="60" height="61" viewBox="0 0 60 61" fill="none" xmlns="http://www.w3.org/2000/svg">
<path d="M11.907 55.9996H11.8979C9.14163 55.9996 6.89917 53.7575 6.89917 51.0013V35.0437C6.89917 34.4682 7.36541 34.002 7.94089 34.002H15.8636C16.439 34.002 16.9053 34.4682 16.9053 35.0437V51.0022C16.9053 53.7581 14.6632 56.0002 11.907 56.0002L11.907 55.9996ZM8.98259 36.085V51.0018C8.98259 52.6087 10.2903 53.9164 11.898 53.9164H11.907C13.5143 53.9164 14.822 52.6087 14.822 51.0015V36.0856L8.98259 36.085Z" fill="#FE3F3F"/>
<path d="M14.2989 36.0849H9.50461C8.92918 36.0849 8.46289 35.6186 8.46289 35.0431V31.8138C8.46289 30.6648 9.39727 29.7305 10.5462 29.7305H13.2571C14.4061 29.7305 15.3405 30.6648 15.3405 31.8138V35.0431C15.3405 35.6182 14.8743 36.0849 14.2989 36.0849ZM10.5462 34.0015H13.2571V31.8139H10.5462V34.0015Z" fill="#FE3F3F"/>
<path d="M50.1778 36.0849H45.3835C44.8081 36.0849 44.3418 35.6186 44.3418 35.0431V31.8138C44.3418 30.6648 45.2762 29.7305 46.4251 29.7305H49.136C50.285 29.7305 51.2194 30.6648 51.2194 31.8138V35.0431C51.2194 35.6182 50.7529 36.0849 50.1778 36.0849ZM46.4251 34.0015H49.136V31.8139H46.4251V34.0015Z" fill="#FE3F3F"/>
<path d="M47.7857 55.9996H47.7759C45.0197 55.9996 42.7776 53.7575 42.7776 51.0013V35.0437C42.7776 34.4682 43.2438 34.002 43.8193 34.002H51.742C52.3174 34.002 52.7837 34.4682 52.7837 35.0437V51.0022C52.7837 53.7581 50.5417 56.0002 47.7858 56.0002L47.7857 55.9996ZM44.861 36.085V51.0018C44.861 52.6087 46.1687 53.9164 47.776 53.9164H47.7858C49.3931 53.9164 50.7008 52.6087 50.7008 51.0015L50.7004 36.0856L44.861 36.085Z" fill="#FE3F3F"/>
<path d="M17.7625 36.0847H6.04148C5.46604 36.0847 4.99976 35.6184 4.99976 35.0429C4.99976 34.4675 5.466 34.0012 6.04148 34.0012H17.7625C18.338 34.0012 18.8043 34.4675 18.8043 35.0429C18.8043 35.618 18.338 36.0847 17.7625 36.0847Z" fill="#FE3F3F"/>
<path d="M53.6417 36.0847H41.9216C41.3462 36.0847 40.8799 35.6184 40.8799 35.0429C40.8799 34.4675 41.3461 34.0012 41.9216 34.0012H53.6417C54.2171 34.0012 54.6834 34.4675 54.6834 35.0429C54.6834 35.618 54.2172 36.0847 53.6421 36.0847H53.6417Z" fill="#FE3F3F"/>
<path d="M30.1329 42.2646C27.0683 42.2646 24.5758 39.772 24.5758 36.7075V13.8989C24.5758 10.6919 21.9664 8.08335 18.7598 8.08335C15.5528 8.08335 12.9443 10.6919 12.9443 13.8989V30.7715C12.9443 31.3469 12.478 31.8132 11.9026 31.8132C11.3271 31.8132 10.8608 31.347 10.8608 30.7715V13.8989C10.8608 9.54369 14.4045 6 18.7597 6C23.1153 6 26.659 9.54369 26.659 13.8989V36.7075C26.659 38.6231 28.2175 40.1812 30.1328 40.1812C32.0488 40.1812 33.6073 38.6227 33.6073 36.7075V23.0626C33.6073 18.8675 37.0202 15.4546 41.2153 15.4546C45.4103 15.4546 48.8232 18.8675 48.8232 23.0626L48.8228 30.7718C48.8228 31.3472 48.3566 31.8135 47.7811 31.8135C47.2056 31.8135 46.7394 31.3473 46.7394 30.7718V23.0626C46.7394 20.0165 44.2608 17.538 41.2148 17.538C38.1687 17.538 35.6902 20.0165 35.6902 23.0626V36.7075C35.6902 39.7721 33.1973 42.2649 30.1327 42.2649L30.1329 42.2646Z" fill="#FE3F3F"/>
<path d="M15.8628 46.0427H7.94016C7.36473 46.0427 6.89844 45.5764 6.89844 45.0009C6.89844 44.4255 7.36468 43.9592 7.94016 43.9592H15.8628C16.4383 43.9592 16.9046 44.4255 16.9046 45.0009C16.9046 45.576 16.438 46.0427 15.8628 46.0427Z" fill="#FE3F3F"/>
<path d="M15.8628 41.4694H7.94016C7.36473 41.4694 6.89844 41.0032 6.89844 40.4277C6.89844 39.8522 7.36468 39.386 7.94016 39.386H15.8628C16.4383 39.386 16.9046 39.8522 16.9046 40.4277C16.9046 41.0032 16.438 41.4694 15.8628 41.4694Z" fill="#FE3F3F"/>
<path d="M15.8628 50.6147H7.94016C7.36473 50.6147 6.89844 50.1485 6.89844 49.573C6.89844 48.9975 7.36468 48.5312 7.94016 48.5312H15.8628C16.4383 48.5312 16.9046 48.9975 16.9046 49.573C16.9046 50.1485 16.438 50.6147 15.8628 50.6147Z" fill="#FE3F3F"/>
<path d="M51.743 46.0427H43.8203C43.2449 46.0427 42.7786 45.5764 42.7786 45.0009C42.7786 44.4255 43.2448 43.9592 43.8203 43.9592H51.743C52.3184 43.9592 52.7847 44.4255 52.7847 45.0009C52.7847 45.576 52.3185 46.0427 51.743 46.0427Z" fill="#FE3F3F"/>
<path d="M51.743 41.4694H43.8203C43.2449 41.4694 42.7786 41.0032 42.7786 40.4277C42.7786 39.8522 43.2448 39.386 43.8203 39.386H51.743C52.3184 39.386 52.7847 39.8522 52.7847 40.4277C52.7847 41.0032 52.3185 41.4694 51.743 41.4694Z" fill="#FE3F3F"/>
<path d="M51.743 50.6147H43.8203C43.2449 50.6147 42.7786 50.1485 42.7786 49.573C42.7786 48.9975 43.2448 48.5312 43.8203 48.5312H51.743C52.3184 48.5312 52.7847 48.9975 52.7847 49.573C52.7847 50.1485 52.3185 50.6147 51.743 50.6147Z" fill="#FE3F3F"/>
</svg>
