<svg width="60" height="60" viewBox="0 0 60 60" fill="none" xmlns="http://www.w3.org/2000/svg">
<path d="M17.5023 34.999C16.411 35.0006 15.3332 35.2404 14.3441 35.7016C13.355 36.1627 12.4785 36.8341 11.7757 37.669C11.073 38.5039 10.5608 39.482 10.2751 40.5353C9.98934 41.5885 9.93689 42.6914 10.1214 43.7669C10.3059 44.8425 10.7229 45.8649 11.3432 46.7627C11.9636 47.6605 12.7725 48.4121 13.7133 48.965C14.6541 49.5179 15.7043 49.8589 16.7905 49.9641C17.8767 50.0693 18.9728 49.9362 20.0023 49.574" stroke="#FE3F3F" stroke-width="2" stroke-linecap="round" stroke-linejoin="round"/>
<path d="M10.6622 39.0115C9.16613 38.2912 7.87294 37.2097 6.89935 35.8647C5.92577 34.5196 5.30244 32.9533 5.08562 31.3071C4.8688 29.6608 5.06532 27.9865 5.65744 26.4353C6.24956 24.884 7.21864 23.5045 8.47723 22.4215M8.55223 22.219C7.73233 20.9921 7.37298 19.5147 7.53778 18.0483C7.70258 16.5819 8.3809 15.2211 9.45267 14.2068C10.5244 13.1926 11.9205 12.5902 13.3937 12.5064C14.867 12.4226 16.3224 12.8628 17.5022 13.749M18.0972 13.9115C17.6984 13.0641 17.4951 12.1379 17.5024 11.2014C17.5097 10.2649 17.7274 9.34196 18.1393 8.50088C18.5513 7.65979 19.147 6.92204 19.8824 6.34216C20.6178 5.76227 21.4742 5.35508 22.3881 5.15067C23.3021 4.94627 24.2503 4.94988 25.1627 5.16124C26.0751 5.3726 26.9283 5.7863 27.6593 6.37177C28.3903 6.95724 28.9804 7.6995 29.3859 8.5437C29.7914 9.38789 30.0021 10.3124 30.0022 11.249V49.999C30.0022 51.3251 29.4754 52.5968 28.5378 53.5345C27.6001 54.4722 26.3283 54.999 25.0022 54.999C23.6761 54.999 22.4044 54.4722 21.4667 53.5345C20.529 52.5968 20.0022 51.3251 20.0022 49.999M30.0022 17.499C30.0022 19.4881 30.7924 21.3958 32.1989 22.8023C33.6054 24.2088 35.5131 24.999 37.5022 24.999M42.5022 34.999C43.5935 35.0006 44.6713 35.2404 45.6604 35.7015C46.6494 36.1627 47.5259 36.8341 48.2287 37.669C48.9315 38.5038 49.4437 39.482 49.7294 40.5352C50.0151 41.5884 50.0676 42.6913 49.8831 43.7669C49.6986 44.8425 49.2816 45.8648 48.6612 46.7626C48.0408 47.6604 47.232 48.412 46.2912 48.965C45.3503 49.5179 44.3002 49.8589 43.214 49.9641C42.1278 50.0692 41.0317 49.9361 40.0022 49.574" stroke="#FE3F3F" stroke-width="2" stroke-linecap="round" stroke-linejoin="round"/>
<path d="M49.3422 39.0115C50.8383 38.2912 52.1315 37.2097 53.1051 35.8647C54.0787 34.5196 54.702 32.9533 54.9188 31.3071C55.1356 29.6608 54.9391 27.9865 54.347 26.4353C53.7549 24.884 52.7858 23.5045 51.5272 22.4215M51.4522 22.219C52.2721 20.9921 52.6314 19.5147 52.4666 18.0483C52.3018 16.5819 51.6235 15.2211 50.5518 14.2068C49.48 13.1926 48.0839 12.5902 46.6107 12.5064C45.1374 12.4226 43.6821 12.8628 42.5022 13.749M30.0022 11.249C30.0024 10.3124 30.213 9.38789 30.6185 8.5437C31.024 7.6995 31.6141 6.95724 32.3451 6.37177C33.0761 5.7863 33.9293 5.3726 34.8417 5.16124C35.7541 4.94988 36.7023 4.94627 37.6163 5.15067C38.5303 5.35508 39.3866 5.76227 40.122 6.34216C40.8575 6.92204 41.4532 7.65979 41.8651 8.50088C42.2771 9.34196 42.4947 10.2649 42.502 11.2014C42.5093 12.1379 42.306 13.0641 41.9072 13.9115M40.0022 49.999C40.0022 51.3251 39.4754 52.5968 38.5377 53.5345C37.6 54.4722 36.3283 54.999 35.0022 54.999C33.6761 54.999 32.4043 54.4722 31.4667 53.5345C30.529 52.5968 30.0022 51.3251 30.0022 49.999" stroke="#FE3F3F" stroke-width="2" stroke-linecap="round" stroke-linejoin="round"/>
</svg>
