<svg width="60" height="60" viewBox="0 0 60 60" fill="none" xmlns="http://www.w3.org/2000/svg">
<path d="M40.4126 33.0505H20.3606C20.0425 33.0505 19.7925 32.8005 19.7925 32.4824C19.7925 32.1643 20.0425 31.9143 20.3606 31.9143H40.4016C40.7197 31.9143 40.9697 32.1643 40.9697 32.4824C40.9697 32.8005 40.7197 33.0505 40.413 33.0505H40.4126ZM40.4126 29.0742H20.3606C20.0425 29.0742 19.7925 28.8242 19.7925 28.5061C19.7925 28.188 20.0425 27.938 20.3606 27.938H40.4016C40.7197 27.938 40.9697 28.188 40.9697 28.5061C40.9697 28.8242 40.7197 29.0742 40.413 29.0742H40.4126Z" fill="#FE3F3F"/>
<path d="M19.2358 38.2196H17.9749C17.0434 38.2196 16.282 37.4586 16.282 36.5268V24.4722C16.282 23.5407 17.043 22.7793 17.9749 22.7793H19.2358C20.1673 22.7793 20.9287 23.5403 20.9287 24.4722V36.5268C20.9287 37.4586 20.1787 38.2196 19.2358 38.2196ZM17.9749 23.9156C17.6682 23.9156 17.4182 24.1655 17.4182 24.4722V36.5378C17.4182 36.8445 17.6682 37.0945 17.9749 37.0945H19.2358C19.5425 37.0945 19.7925 36.8445 19.7925 36.5378V24.4722C19.7925 24.1655 19.5425 23.9156 19.2358 23.9156H17.9749Z" fill="#FE3F3F"/>
<path d="M15.7247 36.0049H14.4638C13.5323 36.0049 12.7709 35.2438 12.7709 34.312V26.6885C12.7709 25.757 13.5319 24.9956 14.4638 24.9956H15.7247C16.6562 24.9956 17.4176 25.7566 17.4176 26.6885C17.4176 27.0066 17.1676 27.2566 16.8495 27.2566C16.5314 27.2566 16.2814 27.0066 16.2814 26.6885C16.2814 26.3818 16.0314 26.1318 15.7247 26.1318L14.4637 26.1322C14.1571 26.1322 13.9071 26.3821 13.9071 26.6888V34.3123C13.9071 34.619 14.1571 34.869 14.4637 34.869H15.7247C16.0314 34.869 16.2814 34.619 16.2814 34.3123C16.2814 33.9942 16.5314 33.7442 16.8495 33.7442C17.1676 33.7442 17.4176 33.9942 17.4176 34.3123C17.4176 35.2438 16.6566 36.0049 15.7247 36.0049Z" fill="#FE3F3F"/>
<path d="M12.2143 34.4709H10.9534C10.0219 34.4709 9.2605 33.7098 9.2605 32.778V28.2222C9.2605 27.2907 10.0215 26.5293 10.9534 26.5293H12.2143C13.1458 26.5293 13.9072 27.2903 13.9072 28.2222C13.9072 28.5403 13.6572 28.7903 13.3391 28.7903C13.021 28.7903 12.771 28.5403 12.771 28.2222C12.771 27.9155 12.521 27.6655 12.2143 27.6655H10.9534C10.6467 27.6655 10.3967 27.9155 10.3967 28.2222V32.778C10.3967 33.0847 10.6467 33.3347 10.9534 33.3347H12.2143C12.521 33.3347 12.771 33.0847 12.771 32.778C12.771 32.4599 13.021 32.2099 13.3391 32.2099C13.6572 32.2099 13.9072 32.4599 13.9072 32.778C13.9072 33.7098 13.1458 34.4709 12.2143 34.4709Z" fill="#FE3F3F"/>
<path d="M9.82882 33.0505H6.56822C6.25011 33.0505 6.00012 32.8005 6.00012 32.4824V28.5061C6.00012 28.188 6.25011 27.938 6.56822 27.938H9.82882C10.1469 27.938 10.3969 28.188 10.3969 28.5061C10.3969 28.8242 10.1469 29.0742 9.82882 29.0742H7.13635V31.9143H9.82882C10.1469 31.9143 10.3969 32.1643 10.3969 32.4824C10.3969 32.8005 10.1469 33.0505 9.82882 33.0505Z" fill="#FE3F3F"/>
<path d="M40.4126 15.7811H20.3606C20.0425 15.7811 19.7925 15.5311 19.7925 15.213C19.7925 14.8949 20.0425 14.6449 20.3606 14.6449H40.4016C40.7197 14.6449 40.9697 14.8949 40.9697 15.213C40.9697 15.5311 40.7197 15.7811 40.413 15.7811H40.4126ZM40.4126 11.8048H20.3606C20.0425 11.8048 19.7925 11.5548 19.7925 11.2367C19.7925 10.9186 20.0425 10.6686 20.3606 10.6686H40.4016C40.7197 10.6686 40.9697 10.9186 40.9697 11.2367C40.9697 11.5548 40.7197 11.8048 40.413 11.8048H40.4126Z" fill="#FE3F3F"/>
<path d="M18.8497 20.9512H17.1568C16.0092 20.9512 15.0778 20.0197 15.0778 18.8721V7.57894C15.0778 6.43136 16.0092 5.49988 17.1568 5.49988H18.8497C19.9973 5.49988 20.9288 6.43136 20.9288 7.57894V18.8602C20.9288 20.0189 19.9973 20.9504 18.8497 20.9504V20.9512ZM17.1568 6.63613C16.6344 6.63613 16.2139 7.05659 16.2139 7.57903V18.8603C16.2139 19.3828 16.6344 19.8032 17.1568 19.8032H18.8497C19.3722 19.8032 19.7926 19.3828 19.7926 18.8603V7.57903C19.7926 7.05657 19.3721 6.63613 18.8497 6.63613H17.1568Z" fill="#FE3F3F"/>
<path d="M14.1342 17.3388H12.4414C11.2938 17.3388 10.3623 16.4073 10.3623 15.2597V11.1925C10.3623 10.0449 11.2938 9.1134 12.4414 9.1134H14.1342C15.2818 9.1134 16.2133 10.0449 16.2133 11.1925C16.2133 11.5106 15.9633 11.7606 15.6452 11.7606C15.3271 11.7606 15.0771 11.5106 15.0771 11.1925C15.0771 10.67 14.6566 10.2496 14.1342 10.2496L12.4413 10.2492C11.9189 10.2492 11.4984 10.6697 11.4984 11.1921V15.248C11.4984 15.7704 11.9189 16.1909 12.4413 16.1909H14.1342C14.6567 16.1909 15.0771 15.7704 15.0771 15.248C15.0771 14.9299 15.3271 14.6799 15.6452 14.6799C15.9633 14.6799 16.2133 14.9299 16.2133 15.248C16.2133 16.407 15.2818 17.3388 14.1342 17.3388Z" fill="#FE3F3F"/>
<path d="M43.6172 20.9512H41.9243C40.7767 20.9512 39.8452 20.0197 39.8452 18.8721V7.57894C39.8452 6.43136 40.7767 5.49988 41.9243 5.49988H43.6172C44.7647 5.49988 45.6962 6.43136 45.6962 7.57894V18.8602C45.6962 20.0189 44.7647 20.9504 43.6172 20.9504V20.9512ZM41.9243 6.63613C41.4018 6.63613 40.9814 7.05659 40.9814 7.57903V18.8603C40.9814 19.3828 41.4018 19.8032 41.9243 19.8032H43.6172C44.1396 19.8032 44.56 19.3828 44.56 18.8603V7.57903C44.56 7.05657 44.1396 6.63613 43.6172 6.63613H41.9243Z" fill="#FE3F3F"/>
<path d="M48.3434 17.3388H46.6505C45.5029 17.3388 44.5714 16.4073 44.5714 15.2597C44.5714 14.9416 44.8214 14.6916 45.1395 14.6916C45.4576 14.6916 45.7076 14.9416 45.7076 15.2597C45.7076 15.7822 46.1281 16.2026 46.6505 16.2026H48.3434C48.8658 16.2026 49.2863 15.7822 49.2863 15.2597V11.1925C49.2863 10.67 48.8658 10.2496 48.3434 10.2496H46.6505C46.1281 10.2496 45.7076 10.67 45.7076 11.1925C45.7076 11.5106 45.4576 11.7606 45.1395 11.7606C44.8214 11.7606 44.5714 11.5106 44.5714 11.1925C44.5714 10.0449 45.5029 9.1134 46.6505 9.1134H48.3434C49.4909 9.1134 50.4224 10.0449 50.4224 11.1925V15.2483C50.4224 16.4069 49.4906 17.3388 48.3434 17.3388Z" fill="#FE3F3F"/>
<path d="M40.4126 50.3307H20.3606C20.0425 50.3307 19.7925 50.0807 19.7925 49.7626C19.7925 49.4445 20.0425 49.1945 20.3606 49.1945H40.4016C40.7197 49.1945 40.9697 49.4445 40.9697 49.7626C40.9697 50.0807 40.7197 50.3307 40.413 50.3307H40.4126ZM40.4126 46.354H20.3606C20.0425 46.354 19.7925 46.104 19.7925 45.7859C19.7925 45.4678 20.0425 45.2178 20.3606 45.2178H40.4016C40.7197 45.2178 40.9697 45.4678 40.9697 45.7859C40.9697 46.1043 40.7197 46.354 40.413 46.354H40.4126Z" fill="#FE3F3F"/>
<path d="M18.8497 55.5H17.1568C16.0092 55.5 15.0778 54.5685 15.0778 53.4209V42.1396C15.0778 40.992 16.0092 40.0605 17.1568 40.0605H18.8497C19.9973 40.0605 20.9288 40.992 20.9288 42.1396V53.4209C20.9288 54.5685 19.9973 55.5 18.8497 55.5ZM17.1568 41.1849C16.6344 41.1849 16.2139 41.6054 16.2139 42.1278V53.4091C16.2139 53.9316 16.6344 54.352 17.1568 54.352H18.8497C19.3722 54.352 19.7926 53.9316 19.7926 53.4091V42.1278C19.7926 41.6054 19.3721 41.1849 18.8497 41.1849H17.1568Z" fill="#FE3F3F"/>
<path d="M14.1342 51.8876H12.4414C11.2938 51.8876 10.3623 50.9561 10.3623 49.8085V45.7526C10.3623 44.6051 11.2938 43.6736 12.4414 43.6736H14.1342C15.2818 43.6736 16.2133 44.6051 16.2133 45.7526C16.2133 46.0708 15.9633 46.3207 15.6452 46.3207C15.3271 46.3207 15.0771 46.0708 15.0771 45.7526C15.0771 45.2302 14.6566 44.8097 14.1342 44.8097H12.4413C11.9189 44.8097 11.4984 45.2302 11.4984 45.7526V49.8085C11.4984 50.331 11.9189 50.7514 12.4413 50.7514H14.1342C14.6567 50.7514 15.0771 50.3309 15.0771 49.8085C15.0771 49.4904 15.3271 49.2404 15.6452 49.2404C15.9633 49.2404 16.2133 49.4904 16.2133 49.8085C16.2133 50.9561 15.2818 51.8876 14.1342 51.8876Z" fill="#FE3F3F"/>
<path d="M43.6172 55.5H41.9243C40.7767 55.5 39.8452 54.5685 39.8452 53.4209V42.1396C39.8452 40.992 40.7767 40.0605 41.9243 40.0605H43.6172C44.7647 40.0605 45.6962 40.992 45.6962 42.1396V53.4209C45.6962 54.5685 44.7647 55.5 43.6172 55.5ZM41.9243 41.1849C41.4018 41.1849 40.9814 41.6054 40.9814 42.1278V53.4091C40.9814 53.9316 41.4018 54.352 41.9243 54.352H43.6172C44.1396 54.352 44.56 53.9316 44.56 53.4091V42.1278C44.56 41.6054 44.1396 41.1849 43.6172 41.1849H41.9243Z" fill="#FE3F3F"/>
<path d="M48.3434 51.8876H46.6505C45.5029 51.8876 44.5714 50.9561 44.5714 49.8085C44.5714 49.4904 44.8214 49.2404 45.1395 49.2404C45.4576 49.2404 45.7076 49.4904 45.7076 49.8085C45.7076 50.331 46.1281 50.7514 46.6505 50.7514H48.3434C48.8658 50.7514 49.2863 50.3309 49.2863 49.8085V45.7526C49.2863 45.2302 48.8658 44.8097 48.3434 44.8097H46.6505C46.1281 44.8097 45.7076 45.2302 45.7076 45.7526C45.7076 46.0708 45.4576 46.3207 45.1395 46.3207C44.8214 46.3207 44.5714 46.0708 44.5714 45.7526C44.5714 44.6051 45.5029 43.6736 46.6505 43.6736H48.3434C49.4909 43.6736 50.4224 44.6051 50.4224 45.7526V49.8085C50.4224 50.9561 49.4906 51.8876 48.3434 51.8876Z" fill="#FE3F3F"/>
<path d="M42.7991 38.2196H41.5381C40.6066 38.2196 39.8452 37.4586 39.8452 36.5268V24.4722C39.8452 23.5407 40.6062 22.7793 41.5381 22.7793H42.7991C43.7305 22.7793 44.4919 23.5403 44.4919 24.4722V36.5268C44.4919 37.4586 43.7309 38.2196 42.7991 38.2196ZM41.5381 23.9156C41.2314 23.9156 40.9814 24.1655 40.9814 24.4722V36.5378C40.9814 36.8445 41.2314 37.0945 41.5381 37.0945H42.7991C43.1058 37.0945 43.3557 36.8445 43.3557 36.5378V24.4722C43.3557 24.1655 43.1058 23.9156 42.7991 23.9156H41.5381Z" fill="#FE3F3F"/>
<path d="M46.3092 36.0049H45.0482C44.1167 36.0049 43.3553 35.2438 43.3553 34.312C43.3553 33.9939 43.6053 33.7439 43.9234 33.7439C44.2416 33.7439 44.4915 33.9939 44.4915 34.312C44.4915 34.6187 44.7415 34.8687 45.0482 34.8687H46.3092C46.6159 34.8687 46.8659 34.6187 46.8659 34.312V26.6885C46.8659 26.3818 46.6159 26.1318 46.3092 26.1318H45.0482C44.7415 26.1318 44.4915 26.3818 44.4915 26.6885C44.4915 27.0066 44.2416 27.2566 43.9234 27.2566C43.6053 27.2566 43.3553 27.0066 43.3553 26.6885C43.3553 25.757 44.1164 24.9956 45.0482 24.9956H46.3092C47.2407 24.9956 48.0021 25.7566 48.0021 26.6885V34.312C48.0021 35.2438 47.241 36.0049 46.3092 36.0049Z" fill="#FE3F3F"/>
<path d="M49.8197 34.4709H48.5587C47.6272 34.4709 46.8658 33.7098 46.8658 32.778C46.8658 32.4599 47.1158 32.2099 47.4339 32.2099C47.7521 32.2099 48.002 32.4599 48.002 32.778C48.002 33.0847 48.252 33.3347 48.5587 33.3347H49.8197C50.1264 33.3347 50.3764 33.0847 50.3764 32.778V28.2222C50.3764 27.9155 50.1264 27.6655 49.8197 27.6655H48.5587C48.252 27.6655 48.002 27.9155 48.002 28.2222C48.002 28.5403 47.7521 28.7903 47.4339 28.7903C47.1158 28.7903 46.8658 28.5403 46.8658 28.2222C46.8658 27.2907 47.6269 26.5293 48.5587 26.5293H49.8197C50.7512 26.5293 51.5126 27.2903 51.5126 28.2222V32.778C51.5126 33.7098 50.7515 34.4709 49.8197 34.4709Z" fill="#FE3F3F"/>
<path d="M54.2054 33.0505H50.9448C50.6267 33.0505 50.3767 32.8005 50.3767 32.4824C50.3767 32.1643 50.6267 31.9143 50.9448 31.9143H53.6373V29.0742H50.9448C50.6267 29.0742 50.3767 28.8242 50.3767 28.5061C50.3767 28.188 50.6267 27.938 50.9448 27.938H54.2054C54.5235 27.938 54.7735 28.188 54.7735 28.5061V32.4824C54.7735 32.8005 54.5235 33.0505 54.2054 33.0505Z" fill="#FE3F3F"/>
</svg>
