<svg width="60" height="60" viewBox="0 0 60 60" fill="none" xmlns="http://www.w3.org/2000/svg">
<g clip-path="url(#clip0_5_1993)">
<path d="M48.9901 5.6274V6.8163C48.9922 7.59214 48.8482 8.36075 48.5665 9.07795C48.2847 9.79514 47.8707 10.4468 47.3483 10.9954C46.8259 11.544 46.2054 11.9787 45.5224 12.2746C44.8395 12.5705 44.1075 12.7217 43.3688 12.7195H32.7943V14.9157C32.7941 15.7264 32.5235 16.5115 32.0294 17.1344C31.5353 17.7574 30.849 18.1788 30.0897 18.3255C29.8905 18.3688 29.6877 18.3909 29.4843 18.3916H28.7453V11.7866C28.7401 11.537 28.7824 11.2888 28.8697 11.0567C28.957 10.8245 29.0877 10.613 29.2539 10.4346C29.4202 10.2561 29.6187 10.1144 29.8378 10.0176C30.057 9.92087 30.2923 9.87106 30.53 9.87112H31.4577V9.13631C31.4577 8.20493 31.8095 7.31157 32.4359 6.65221C33.0623 5.99285 33.9122 5.62133 34.7991 5.61914L48.9901 5.6274Z" stroke="#FE3F3F" stroke-width="2" stroke-linecap="round" stroke-linejoin="round"/>
<path d="M50.3266 21.2235C50.3266 21.9746 50.0425 22.6949 49.5368 23.226C49.031 23.7571 48.3451 24.0555 47.6299 24.0555V27.2093C47.6337 27.7062 47.5147 28.1956 47.2846 28.6297C47.0544 29.0638 46.7211 29.4278 46.3169 29.6862L45.0276 30.5119L40.5776 33.319C40.2625 33.5215 39.9027 33.6347 39.5334 33.6478C39.1642 33.6608 38.798 33.5731 38.4706 33.3933L34.4531 31.1971L31.5598 29.6202C31.1166 29.3783 30.745 29.0132 30.4858 28.5648C30.2265 28.1164 30.0895 27.6018 30.0896 27.0772V24.0555C29.3744 24.0555 28.6885 23.7571 28.1828 23.226C27.6771 22.6949 27.3929 21.9746 27.3929 21.2235C27.3929 20.4725 27.6771 19.7522 28.1828 19.2211C28.6885 18.69 29.3744 18.3916 30.0896 18.3916V18.3256C30.8489 18.1789 31.5352 17.7574 32.0293 17.1345C32.5234 16.5116 32.7941 15.7265 32.7942 14.9158V12.7196H43.3687C44.1812 12.7201 44.9842 12.5358 45.7224 12.1795C46.4607 11.8232 47.1168 11.3033 47.6456 10.6555V18.3916C48.3581 18.396 49.04 18.6963 49.5423 19.2269C50.0447 19.7575 50.3266 20.4753 50.3266 21.2235Z" stroke="#FE3F3F" stroke-width="2" stroke-linecap="round" stroke-linejoin="round"/>
<path d="M34.4531 37.6865L23.5956 40.989C23.163 41.1183 22.7824 41.3922 22.5114 41.7692C22.2404 42.1461 22.0938 42.6056 22.0939 43.0779V54.3725M45.0433 37.6865L55.9008 40.989C56.327 41.1163 56.7029 41.384 56.9733 41.7527C57.2437 42.1213 57.3941 42.5714 57.4025 43.0366V54.3725M45.0433 30.5118V37.7278L40.9472 40.601C40.5962 40.8408 40.1865 40.9685 39.7678 40.9685C39.3491 40.9685 38.9395 40.8408 38.5885 40.601L34.4845 37.7278V31.1971L38.5021 33.3933C38.8295 33.5731 39.1956 33.6607 39.5649 33.6477C39.9342 33.6347 40.2939 33.5214 40.6091 33.3189L45.0433 30.5118ZM22.943 15.6918V16.6248C22.943 17.2406 22.8275 17.8504 22.6031 18.4194C22.3787 18.9883 22.0497 19.5053 21.6351 19.9408C21.2204 20.3763 20.7281 20.7217 20.1863 20.9574C19.6445 21.193 19.0638 21.3143 18.4774 21.3143H10.0885V23.0812C10.0875 23.7236 9.87229 24.3454 9.48021 24.8386C9.08813 25.3318 8.54396 25.6652 7.94219 25.781C7.78436 25.8146 7.62366 25.8312 7.4626 25.8305H6.87295V20.5548C6.8719 20.3582 6.908 20.1634 6.97915 19.9816C7.05029 19.7998 7.15507 19.6346 7.28742 19.4956C7.41977 19.3566 7.57706 19.2466 7.75018 19.1719C7.9233 19.0972 8.10881 19.0593 8.29598 19.0604H8.46895C8.54904 17.6899 9.12402 16.4032 10.0766 15.4627C11.0292 14.5222 12.2875 13.9988 13.595 13.9993H18.6739C18.6703 14.5606 18.5828 15.1178 18.4145 15.6505L22.943 15.6918Z" stroke="#FE3F3F" stroke-width="2" stroke-linecap="round" stroke-linejoin="round"/>
<path d="M24.0123 28.0349C24.0123 28.6313 23.7873 29.2034 23.3864 29.6258C22.9856 30.0483 22.4417 30.2867 21.8738 30.2889V32.7658C21.8724 33.1562 21.7755 33.5396 21.5924 33.8794C21.4093 34.2191 21.1461 34.5038 20.8282 34.706L19.814 35.3583L16.2603 37.6205C16.0099 37.7776 15.7256 37.8653 15.434 37.8754C15.1425 37.8855 14.8533 37.8177 14.5936 37.6783L11.4016 35.9362L9.10583 34.6813C8.75661 34.4872 8.46399 34.1975 8.2591 33.8427C8.05421 33.488 7.94471 33.0816 7.94224 32.6667V30.2724C7.373 30.2724 6.82707 30.0349 6.42455 29.6122C6.02203 29.1895 5.7959 28.6162 5.7959 28.0184C5.7959 27.4206 6.02203 26.8473 6.42455 26.4246C6.82707 26.0019 7.373 25.7645 7.94224 25.7645V25.7149C8.53355 25.6014 9.06965 25.2777 9.46049 24.7981C9.85134 24.3185 10.0731 23.7122 10.0886 23.0812V21.3143H18.4774C19.1238 21.3147 19.7624 21.1671 20.349 20.8819C20.9355 20.5968 21.4559 20.1808 21.8738 19.6631V25.8058C22.4383 25.8057 22.9798 26.0401 23.3804 26.4577C23.781 26.8752 24.0082 27.4422 24.0123 28.0349Z" stroke="#FE3F3F" stroke-width="2" stroke-linecap="round" stroke-linejoin="round"/>
<path d="M11.4094 41.1296L14.6564 43.4083C14.9381 43.6057 15.2691 43.711 15.6077 43.711C15.9463 43.711 16.2774 43.6057 16.559 43.4083L19.8139 41.1296V35.408L16.2681 37.6619C16.0184 37.8251 15.7322 37.9164 15.4382 37.9266C15.1442 37.9367 14.8529 37.8654 14.5935 37.7197L11.4094 35.9859V41.1296ZM11.4094 41.1296L2.7611 43.7138C2.42068 43.8203 2.12208 44.0394 1.90963 44.3383C1.69717 44.6373 1.5822 45.0002 1.58179 45.3733V54.3726" stroke="#FE3F3F" stroke-width="2" stroke-linecap="round" stroke-linejoin="round"/>
</g>
<defs>
<clipPath id="clip0_5_1993">
<rect width="57" height="50" fill="white" transform="translate(1 5)"/>
</clipPath>
</defs>
</svg>
